<mxfile host="app.diagrams.net" modified="2021-02-28T20:51:41.888Z" agent="5.0 (Windows NT 10.0; Win64; x64) AppleWebKit/537.36 (KHTML, like Gecko) Chrome/88.0.4324.190 Safari/537.36" etag="Psu2IntO7sGK7VvpC5vp" version="14.4.3" type="github">
  <diagram id="Dze1Ma6fVJCJLbmEjT1m" name="Page-1">
    <mxGraphModel dx="1554" dy="582" grid="1" gridSize="10" guides="1" tooltips="1" connect="1" arrows="1" fold="1" page="1" pageScale="1" pageWidth="827" pageHeight="1169" math="0" shadow="0">
      <root>
        <mxCell id="0" />
        <mxCell id="1" parent="0" />
        <mxCell id="zoM2ksk7p5f8HjakFHzy-1" value="Nouveau" style="ellipse;whiteSpace=wrap;html=1;fillColor=#0050ef;strokeColor=#001DBC;fontColor=#ffffff;" parent="1" vertex="1">
          <mxGeometry x="10" y="240" width="120" height="80" as="geometry" />
        </mxCell>
        <mxCell id="zoM2ksk7p5f8HjakFHzy-2" value="Prêt" style="ellipse;whiteSpace=wrap;html=1;gradientColor=#ffa500;fillColor=#ffcd28;strokeColor=#d79b00;" parent="1" vertex="1">
          <mxGeometry x="290" width="120" height="80" as="geometry" />
        </mxCell>
        <mxCell id="zoM2ksk7p5f8HjakFHzy-3" value="Bloqué" style="ellipse;whiteSpace=wrap;html=1;fillColor=#fa6800;strokeColor=#C73500;fontColor=#ffffff;" parent="1" vertex="1">
          <mxGeometry x="294" y="520" width="120" height="80" as="geometry" />
        </mxCell>
        <mxCell id="zoM2ksk7p5f8HjakFHzy-4" value="Permuté-bloqué" style="ellipse;whiteSpace=wrap;html=1;fillColor=#e51400;strokeColor=#B20000;fontColor=#ffffff;" parent="1" vertex="1">
          <mxGeometry x="294" y="690" width="120" height="80" as="geometry" />
        </mxCell>
        <mxCell id="zoM2ksk7p5f8HjakFHzy-5" value="Permuté-prêt" style="ellipse;whiteSpace=wrap;html=1;gradientColor=#ffd966;fillColor=#fff2cc;strokeColor=#d6b656;" parent="1" vertex="1">
          <mxGeometry x="290" y="330" width="120" height="80" as="geometry" />
        </mxCell>
        <mxCell id="zoM2ksk7p5f8HjakFHzy-6" value="Elu" style="ellipse;whiteSpace=wrap;html=1;fillColor=#cdeb8b;strokeColor=#36393d;" parent="1" vertex="1">
          <mxGeometry x="700" y="160" width="120" height="80" as="geometry" />
        </mxCell>
        <mxCell id="zoM2ksk7p5f8HjakFHzy-7" value="Terminé" style="ellipse;whiteSpace=wrap;html=1;fillColor=#008a00;strokeColor=#005700;fontColor=#ffffff;" parent="1" vertex="1">
          <mxGeometry x="840" y="440" width="120" height="80" as="geometry" />
        </mxCell>
        <mxCell id="zoM2ksk7p5f8HjakFHzy-8" value="" style="shape=flexArrow;endArrow=classic;html=1;entryX=0;entryY=0.625;entryDx=0;entryDy=0;entryPerimeter=0;exitX=0.5;exitY=0;exitDx=0;exitDy=0;fillColor=#bac8d3;strokeColor=#23445d;" parent="1" source="zoM2ksk7p5f8HjakFHzy-1" target="zoM2ksk7p5f8HjakFHzy-2" edge="1">
          <mxGeometry width="50" height="50" relative="1" as="geometry">
            <mxPoint x="50" y="230" as="sourcePoint" />
            <mxPoint x="100" y="180" as="targetPoint" />
          </mxGeometry>
        </mxCell>
        <mxCell id="zoM2ksk7p5f8HjakFHzy-9" value="" style="shape=flexArrow;endArrow=classic;html=1;fillColor=#d0cee2;strokeColor=#56517e;" parent="1" source="zoM2ksk7p5f8HjakFHzy-1" target="zoM2ksk7p5f8HjakFHzy-5" edge="1">
          <mxGeometry width="50" height="50" relative="1" as="geometry">
            <mxPoint x="130" y="260" as="sourcePoint" />
            <mxPoint x="180" y="210" as="targetPoint" />
          </mxGeometry>
        </mxCell>
        <mxCell id="zoM2ksk7p5f8HjakFHzy-10" value="" style="shape=flexArrow;endArrow=classic;html=1;entryX=0.017;entryY=0.413;entryDx=0;entryDy=0;entryPerimeter=0;fillColor=#b1ddf0;strokeColor=#10739e;" parent="1" source="zoM2ksk7p5f8HjakFHzy-1" target="zoM2ksk7p5f8HjakFHzy-3" edge="1">
          <mxGeometry width="50" height="50" relative="1" as="geometry">
            <mxPoint x="160" y="390" as="sourcePoint" />
            <mxPoint x="210" y="340" as="targetPoint" />
          </mxGeometry>
        </mxCell>
        <mxCell id="zoM2ksk7p5f8HjakFHzy-11" value="" style="shape=flexArrow;endArrow=classic;html=1;exitX=0.433;exitY=1.025;exitDx=0;exitDy=0;exitPerimeter=0;entryX=0;entryY=0.5;entryDx=0;entryDy=0;fillColor=#b0e3e6;strokeColor=#0e8088;" parent="1" source="zoM2ksk7p5f8HjakFHzy-1" target="zoM2ksk7p5f8HjakFHzy-4" edge="1">
          <mxGeometry width="50" height="50" relative="1" as="geometry">
            <mxPoint x="120" y="440" as="sourcePoint" />
            <mxPoint x="170" y="390" as="targetPoint" />
          </mxGeometry>
        </mxCell>
        <mxCell id="zoM2ksk7p5f8HjakFHzy-12" value="" style="shape=flexArrow;endArrow=classic;html=1;entryX=0.5;entryY=1;entryDx=0;entryDy=0;exitX=0.5;exitY=0;exitDx=0;exitDy=0;fillColor=#f0a30a;strokeColor=#BD7000;" parent="1" source="zoM2ksk7p5f8HjakFHzy-4" target="zoM2ksk7p5f8HjakFHzy-3" edge="1">
          <mxGeometry width="50" height="50" relative="1" as="geometry">
            <mxPoint x="325" y="460" as="sourcePoint" />
            <mxPoint x="375" y="410" as="targetPoint" />
          </mxGeometry>
        </mxCell>
        <mxCell id="zoM2ksk7p5f8HjakFHzy-13" value="" style="shape=flexArrow;endArrow=classic;html=1;exitX=0.5;exitY=0;exitDx=0;exitDy=0;fillColor=#f0a30a;strokeColor=#BD7000;" parent="1" source="zoM2ksk7p5f8HjakFHzy-3" target="zoM2ksk7p5f8HjakFHzy-5" edge="1">
          <mxGeometry width="50" height="50" relative="1" as="geometry">
            <mxPoint x="330" y="300" as="sourcePoint" />
            <mxPoint x="380" y="250" as="targetPoint" />
          </mxGeometry>
        </mxCell>
        <mxCell id="zoM2ksk7p5f8HjakFHzy-14" value="" style="shape=flexArrow;endArrow=classic;html=1;entryX=0.5;entryY=1;entryDx=0;entryDy=0;fillColor=#f0a30a;strokeColor=#BD7000;" parent="1" source="zoM2ksk7p5f8HjakFHzy-5" target="zoM2ksk7p5f8HjakFHzy-2" edge="1">
          <mxGeometry width="50" height="50" relative="1" as="geometry">
            <mxPoint x="320" y="150" as="sourcePoint" />
            <mxPoint x="370" y="100" as="targetPoint" />
          </mxGeometry>
        </mxCell>
        <mxCell id="zoM2ksk7p5f8HjakFHzy-15" value="" style="shape=flexArrow;endArrow=classic;html=1;exitX=0;exitY=0.5;exitDx=0;exitDy=0;fillColor=#e51400;strokeColor=#B20000;" parent="1" source="zoM2ksk7p5f8HjakFHzy-6" target="zoM2ksk7p5f8HjakFHzy-5" edge="1">
          <mxGeometry width="50" height="50" relative="1" as="geometry">
            <mxPoint x="750" y="280" as="sourcePoint" />
            <mxPoint x="800" y="230" as="targetPoint" />
          </mxGeometry>
        </mxCell>
        <mxCell id="zoM2ksk7p5f8HjakFHzy-16" value="" style="shape=flexArrow;endArrow=classic;html=1;entryX=0;entryY=0;entryDx=0;entryDy=0;fillColor=#008a00;strokeColor=#005700;" parent="1" source="zoM2ksk7p5f8HjakFHzy-2" target="zoM2ksk7p5f8HjakFHzy-6" edge="1">
          <mxGeometry width="50" height="50" relative="1" as="geometry">
            <mxPoint x="580" y="150" as="sourcePoint" />
            <mxPoint x="860" y="260" as="targetPoint" />
          </mxGeometry>
        </mxCell>
        <mxCell id="zoM2ksk7p5f8HjakFHzy-17" value="" style="shape=flexArrow;endArrow=classic;html=1;entryX=0.983;entryY=0.313;entryDx=0;entryDy=0;entryPerimeter=0;exitX=0.65;exitY=-0.012;exitDx=0;exitDy=0;exitPerimeter=0;fillColor=#d80073;strokeColor=#A50040;" parent="1" source="zoM2ksk7p5f8HjakFHzy-6" target="zoM2ksk7p5f8HjakFHzy-2" edge="1">
          <mxGeometry width="50" height="50" relative="1" as="geometry">
            <mxPoint x="680" y="150" as="sourcePoint" />
            <mxPoint x="730" y="100" as="targetPoint" />
          </mxGeometry>
        </mxCell>
        <mxCell id="zoM2ksk7p5f8HjakFHzy-18" value="" style="shape=flexArrow;endArrow=classic;html=1;exitX=0.5;exitY=1;exitDx=0;exitDy=0;fillColor=#008a00;strokeColor=#005700;" parent="1" source="zoM2ksk7p5f8HjakFHzy-6" target="zoM2ksk7p5f8HjakFHzy-7" edge="1">
          <mxGeometry width="50" height="50" relative="1" as="geometry">
            <mxPoint x="1030" y="310" as="sourcePoint" />
            <mxPoint x="1080" y="260" as="targetPoint" />
          </mxGeometry>
        </mxCell>
        <mxCell id="zoM2ksk7p5f8HjakFHzy-22" value="Priorité &amp;gt;80" style="text;html=1;strokeColor=none;fillColor=none;align=center;verticalAlign=middle;whiteSpace=wrap;rounded=0;rotation=-40;" parent="1" vertex="1">
          <mxGeometry x="105.32" y="130" width="100" height="20" as="geometry" />
        </mxCell>
        <mxCell id="zoM2ksk7p5f8HjakFHzy-23" value="60&amp;lt;Priorité &amp;lt;80" style="text;html=1;strokeColor=none;fillColor=none;align=center;verticalAlign=middle;whiteSpace=wrap;rounded=0;rotation=-15;" parent="1" vertex="1">
          <mxGeometry x="136" y="220" width="120.29" height="20" as="geometry" />
        </mxCell>
        <mxCell id="zoM2ksk7p5f8HjakFHzy-24" value="40&amp;lt;Priorité&amp;lt;60" style="text;html=1;strokeColor=none;fillColor=none;align=center;verticalAlign=middle;whiteSpace=wrap;rounded=0;rotation=15;" parent="1" vertex="1">
          <mxGeometry x="170" y="290" width="81" height="30" as="geometry" />
        </mxCell>
        <mxCell id="zoM2ksk7p5f8HjakFHzy-25" value="Priorité&amp;lt;40" style="text;html=1;strokeColor=none;fillColor=none;align=center;verticalAlign=middle;whiteSpace=wrap;rounded=0;rotation=45;" parent="1" vertex="1">
          <mxGeometry x="136" y="400" width="115" height="20" as="geometry" />
        </mxCell>
        <mxCell id="zoM2ksk7p5f8HjakFHzy-26" value="&lt;h1&gt;&lt;span&gt;&lt;font style=&quot;font-size: 14px&quot;&gt;Calcul de la priorité dépend de:&lt;/font&gt;&lt;/span&gt;&lt;/h1&gt;&lt;h1&gt;&lt;span style=&quot;font-weight: normal&quot; id=&quot;docs-internal-guid-5ad885e3-7fff-9ee6-34b0-edc623828f37&quot;&gt;&lt;p dir=&quot;ltr&quot; style=&quot;line-height: 1.38 ; background-color: #ffffff ; margin-top: 6pt ; margin-bottom: 0pt ; padding: 0pt 0pt 12pt 0pt&quot;&gt;&lt;span style=&quot;font-size: 11px ; background-color: transparent ; color: rgb(69 , 69 , 69) ; font-family: &amp;#34;arial&amp;#34;&quot;&gt;-Son échéance (date de remboursement prévue) /10&lt;/span&gt;&lt;/p&gt;&lt;p dir=&quot;ltr&quot; style=&quot;line-height: 1.38 ; background-color: #ffffff ; margin-top: 0pt ; margin-bottom: 0pt ; padding: 0 0pt 12pt 0pt&quot;&gt;&lt;span style=&quot;font-size: 11px ; background-color: transparent ; color: rgb(69 , 69 , 69) ; font-family: &amp;#34;arial&amp;#34;&quot;&gt;-La valeur des remboursements dont l’échéance est proche /10&lt;/span&gt;&lt;/p&gt;&lt;p dir=&quot;ltr&quot; style=&quot;line-height: 1.38 ; background-color: #ffffff ; margin-top: 0pt ; margin-bottom: 0pt ; padding: 0 0pt 12pt 0pt&quot;&gt;&lt;span style=&quot;font-family: &amp;#34;arial&amp;#34; ; color: rgb(69 , 69 , 69) ; background-color: transparent ; vertical-align: baseline&quot;&gt;&lt;font style=&quot;font-size: 11px&quot;&gt;-Justificatif joint ou non /20&lt;/font&gt;&lt;/span&gt;&lt;/p&gt;&lt;p dir=&quot;ltr&quot; style=&quot;line-height: 1.38 ; background-color: #ffffff ; margin-top: 0pt ; margin-bottom: 0pt ; padding: 0 0pt 12pt 0pt&quot;&gt;&lt;span style=&quot;font-family: &amp;#34;arial&amp;#34; ; color: rgb(69 , 69 , 69) ; background-color: transparent ; vertical-align: baseline&quot;&gt;&lt;font style=&quot;font-size: 11px&quot;&gt;-Le type de besoin ponctuel /20&lt;/font&gt;&lt;/span&gt;&lt;/p&gt;&lt;p dir=&quot;ltr&quot; style=&quot;line-height: 1.38 ; background-color: #ffffff ; margin-top: 0pt ; margin-bottom: 0pt ; padding: 0 0pt 12pt 0pt&quot;&gt;&lt;font color=&quot;#454545&quot; face=&quot;arial&quot;&gt;&lt;span style=&quot;font-size: 11px&quot;&gt;-La crédibilité du demandeur/ 20&lt;/span&gt;&lt;/font&gt;&lt;/p&gt;&lt;p dir=&quot;ltr&quot; style=&quot;line-height: 1.38 ; background-color: #ffffff ; margin-top: 0pt ; margin-bottom: 12pt ; padding: 0 0pt 0pt 0pt&quot;&gt;&lt;span style=&quot;font-family: &amp;#34;arial&amp;#34; ; color: rgb(69 , 69 , 69) ; background-color: transparent ; vertical-align: baseline&quot;&gt;&lt;font style=&quot;font-size: 11px&quot;&gt;-L’urgence du besoin /30&lt;/font&gt;&lt;/span&gt;&lt;/p&gt;&lt;div&gt;&lt;span style=&quot;font-size: 17pt ; font-family: &amp;#34;arial&amp;#34; ; color: rgb(69 , 69 , 69) ; background-color: transparent ; vertical-align: baseline&quot;&gt;&lt;br&gt;&lt;/span&gt;&lt;/div&gt;&lt;/span&gt;&lt;/h1&gt;" style="text;html=1;strokeColor=none;fillColor=none;spacing=5;spacingTop=-20;whiteSpace=wrap;overflow=hidden;rounded=0;" parent="1" vertex="1">
          <mxGeometry x="15.32" y="600" width="190" height="400" as="geometry" />
        </mxCell>
        <mxCell id="zoM2ksk7p5f8HjakFHzy-27" value="" style="endArrow=none;dashed=1;html=1;fillColor=#FF2146;strokeColor=#FF338B;" parent="1" edge="1">
          <mxGeometry width="50" height="50" relative="1" as="geometry">
            <mxPoint x="260" y="1160" as="sourcePoint" />
            <mxPoint x="260" as="targetPoint" />
          </mxGeometry>
        </mxCell>
        <mxCell id="zoM2ksk7p5f8HjakFHzy-29" value="" style="endArrow=none;dashed=1;html=1;dashPattern=1 3;strokeWidth=2;fillColor=#FF2146;" parent="1" edge="1">
          <mxGeometry width="50" height="50" relative="1" as="geometry">
            <mxPoint x="540" y="1160" as="sourcePoint" />
            <mxPoint x="560" y="20" as="targetPoint" />
            <Array as="points">
              <mxPoint x="710" y="490" />
              <mxPoint x="560" y="370" />
            </Array>
          </mxGeometry>
        </mxCell>
        <mxCell id="zoM2ksk7p5f8HjakFHzy-30" value="" style="endArrow=none;dashed=1;html=1;strokeColor=#0000CC;fillColor=#FF2146;" parent="1" edge="1">
          <mxGeometry width="50" height="50" relative="1" as="geometry">
            <mxPoint x="830" y="1160" as="sourcePoint" />
            <mxPoint x="830" as="targetPoint" />
          </mxGeometry>
        </mxCell>
        <mxCell id="zoM2ksk7p5f8HjakFHzy-31" value="" style="endArrow=classic;html=1;strokeColor=#0000CC;fillColor=#FF2146;exitX=0.455;exitY=0.25;exitDx=0;exitDy=0;exitPerimeter=0;" parent="1" source="zoM2ksk7p5f8HjakFHzy-32" edge="1">
          <mxGeometry width="50" height="50" relative="1" as="geometry">
            <mxPoint x="660" y="280" as="sourcePoint" />
            <mxPoint x="620" y="240" as="targetPoint" />
          </mxGeometry>
        </mxCell>
        <mxCell id="zoM2ksk7p5f8HjakFHzy-32" value="Quand un administrateur bloque&amp;nbsp;&lt;br&gt;une demande à l&#39;état élu" style="ellipse;shape=cloud;whiteSpace=wrap;html=1;" parent="1" vertex="1">
          <mxGeometry x="560" y="290" width="220" height="80" as="geometry" />
        </mxCell>
        <mxCell id="zoM2ksk7p5f8HjakFHzy-33" value="Quand un demandeur&lt;br&gt;a perçu la somme demandée" style="ellipse;shape=cloud;whiteSpace=wrap;html=1;" parent="1" vertex="1">
          <mxGeometry x="830" y="290" width="250" height="80" as="geometry" />
        </mxCell>
        <mxCell id="zoM2ksk7p5f8HjakFHzy-34" value="Quand une demande à l&#39;état prêt a une&amp;nbsp;&lt;br&gt;priorité supérieure à celle à un état élu&lt;br&gt;et dont l&#39;échange respecte l&#39;état de la caisse&lt;br&gt;-sans situation favorable" style="ellipse;shape=cloud;whiteSpace=wrap;html=1;" parent="1" vertex="1">
          <mxGeometry x="560" width="340" height="110" as="geometry" />
        </mxCell>
        <mxCell id="zoM2ksk7p5f8HjakFHzy-35" value="état de disponibilité de la caisse supérieur à un certain seuil" style="ellipse;shape=cloud;whiteSpace=wrap;html=1;" parent="1" vertex="1">
          <mxGeometry x="350" y="140" width="200" height="70" as="geometry" />
        </mxCell>
        <mxCell id="zoM2ksk7p5f8HjakFHzy-36" value="" style="endArrow=classic;html=1;strokeColor=#0000CC;fillColor=#FF2146;exitX=0.49;exitY=0.086;exitDx=0;exitDy=0;exitPerimeter=0;" parent="1" source="zoM2ksk7p5f8HjakFHzy-35" edge="1">
          <mxGeometry width="50" height="50" relative="1" as="geometry">
            <mxPoint x="440" y="150" as="sourcePoint" />
            <mxPoint x="480" y="90" as="targetPoint" />
          </mxGeometry>
        </mxCell>
        <mxCell id="zoM2ksk7p5f8HjakFHzy-37" value="passage à un état plus&amp;nbsp;&lt;br&gt;favorable en cas de&amp;nbsp;&lt;br&gt;situation favorable" style="ellipse;shape=cloud;whiteSpace=wrap;html=1;" parent="1" vertex="1">
          <mxGeometry x="400" y="410" width="240" height="90" as="geometry" />
        </mxCell>
        <mxCell id="zoM2ksk7p5f8HjakFHzy-38" value="" style="endArrow=classic;html=1;strokeColor=#0000CC;fillColor=#FF2146;exitX=0.746;exitY=0.2;exitDx=0;exitDy=0;exitPerimeter=0;" parent="1" source="zoM2ksk7p5f8HjakFHzy-37" edge="1">
          <mxGeometry width="50" height="50" relative="1" as="geometry">
            <mxPoint x="440" y="305" as="sourcePoint" />
            <mxPoint x="360" y="250" as="targetPoint" />
          </mxGeometry>
        </mxCell>
        <mxCell id="zoM2ksk7p5f8HjakFHzy-39" value="" style="endArrow=classic;html=1;strokeColor=#0000CC;fillColor=#FF2146;exitX=0.271;exitY=0.189;exitDx=0;exitDy=0;exitPerimeter=0;" parent="1" source="zoM2ksk7p5f8HjakFHzy-37" target="zoM2ksk7p5f8HjakFHzy-5" edge="1">
          <mxGeometry width="50" height="50" relative="1" as="geometry">
            <mxPoint x="430" y="430" as="sourcePoint" />
            <mxPoint x="480" y="380" as="targetPoint" />
          </mxGeometry>
        </mxCell>
        <mxCell id="zoM2ksk7p5f8HjakFHzy-40" value="" style="endArrow=classic;html=1;strokeColor=#0000CC;fillColor=#FF2146;entryX=1;entryY=0.5;entryDx=0;entryDy=0;exitX=0.31;exitY=0.8;exitDx=0;exitDy=0;exitPerimeter=0;" parent="1" source="zoM2ksk7p5f8HjakFHzy-37" target="zoM2ksk7p5f8HjakFHzy-3" edge="1">
          <mxGeometry width="50" height="50" relative="1" as="geometry">
            <mxPoint x="450" y="620" as="sourcePoint" />
            <mxPoint x="500" y="570" as="targetPoint" />
          </mxGeometry>
        </mxCell>
        <mxCell id="zoM2ksk7p5f8HjakFHzy-41" value="" style="endArrow=classic;html=1;strokeColor=#0000CC;fillColor=#FF2146;exitX=0.8;exitY=0.8;exitDx=0;exitDy=0;exitPerimeter=0;" parent="1" source="zoM2ksk7p5f8HjakFHzy-37" target="zoM2ksk7p5f8HjakFHzy-4" edge="1">
          <mxGeometry width="50" height="50" relative="1" as="geometry">
            <mxPoint x="410" y="690" as="sourcePoint" />
            <mxPoint x="460" y="640" as="targetPoint" />
          </mxGeometry>
        </mxCell>
        <mxCell id="zoM2ksk7p5f8HjakFHzy-42" value="1" style="triangle;whiteSpace=wrap;html=1;fillColor=#0050ef;strokeColor=#001DBC;fontColor=#ffffff;" parent="1" vertex="1">
          <mxGeometry x="130" y="1080" width="60" height="80" as="geometry" />
        </mxCell>
        <mxCell id="zoM2ksk7p5f8HjakFHzy-43" value="2" style="triangle;whiteSpace=wrap;html=1;fillColor=#f0a30a;strokeColor=#BD7000;fontColor=#ffffff;" parent="1" vertex="1">
          <mxGeometry x="414" y="1080" width="60" height="80" as="geometry" />
        </mxCell>
        <mxCell id="zoM2ksk7p5f8HjakFHzy-44" value="3" style="triangle;whiteSpace=wrap;html=1;gradientColor=#97d077;fillColor=#d5e8d4;strokeColor=#82b366;" parent="1" vertex="1">
          <mxGeometry x="660" y="1089" width="60" height="80" as="geometry" />
        </mxCell>
        <mxCell id="zoM2ksk7p5f8HjakFHzy-45" value="4" style="triangle;whiteSpace=wrap;html=1;fillColor=#008a00;strokeColor=#005700;fontColor=#ffffff;" parent="1" vertex="1">
          <mxGeometry x="970" y="1080" width="60" height="80" as="geometry" />
        </mxCell>
        <mxCell id="vxX3c3MN7XvkiOVMZcCa-1" value="Supprimé" style="ellipse;whiteSpace=wrap;html=1;aspect=fixed;strokeColor=#6D1F00;fontColor=#ffffff;fillColor=#1A1A1A;" parent="1" vertex="1">
          <mxGeometry x="299" y="890" width="110" height="110" as="geometry" />
        </mxCell>
        <mxCell id="vxX3c3MN7XvkiOVMZcCa-2" value="" style="shape=flexArrow;endArrow=classic;html=1;exitX=0.083;exitY=0.75;exitDx=0;exitDy=0;fillColor=#000000;exitPerimeter=0;" parent="1" source="zoM2ksk7p5f8HjakFHzy-1" target="vxX3c3MN7XvkiOVMZcCa-1" edge="1">
          <mxGeometry width="50" height="50" relative="1" as="geometry">
            <mxPoint x="40" y="170" as="sourcePoint" />
            <mxPoint x="90" y="120" as="targetPoint" />
          </mxGeometry>
        </mxCell>
      </root>
    </mxGraphModel>
  </diagram>
</mxfile>
